<?xml version="1.0" encoding="UTF-8" standalone="no"?>
<!-- Created with Inkscape (http://www.inkscape.org/) -->

<svg
   xmlns:dc="http://purl.org/dc/elements/1.1/"
   xmlns:cc="http://creativecommons.org/ns#"
   xmlns:rdf="http://www.w3.org/1999/02/22-rdf-syntax-ns#"
   xmlns:svg="http://www.w3.org/2000/svg"
   xmlns="http://www.w3.org/2000/svg"
   xmlns:sodipodi="http://sodipodi.sourceforge.net/DTD/sodipodi-0.dtd"
   xmlns:inkscape="http://www.inkscape.org/namespaces/inkscape"
   id="svg2"
   version="1.1"
   inkscape:version="0.48.4 r9939"
   width="903.54324"
   height="212.59842"
   xml:space="preserve"
   sodipodi:docname="elph_tetra.pdf"><metadata
     id="metadata8"><rdf:RDF><cc:Work
         rdf:about=""><dc:format>image/svg+xml</dc:format><dc:type
           rdf:resource="http://purl.org/dc/dcmitype/StillImage" /><dc:title></dc:title></cc:Work></rdf:RDF></metadata><defs
     id="defs6" /><sodipodi:namedview
     pagecolor="#ffffff"
     bordercolor="#666666"
     borderopacity="1"
     objecttolerance="10"
     gridtolerance="10"
     guidetolerance="10"
     inkscape:pageopacity="0"
     inkscape:pageshadow="2"
     inkscape:window-width="1440"
     inkscape:window-height="897"
     id="namedview4"
     showgrid="false"
     inkscape:zoom="1.0205015"
     inkscape:cx="451.77161"
     inkscape:cy="106.29921"
     inkscape:window-x="0"
     inkscape:window-y="63"
     inkscape:window-maximized="0"
     inkscape:current-layer="g10" /><g
     id="g10"
     inkscape:groupmode="layer"
     inkscape:label="elph_tetra"
     transform="matrix(1.25,0,0,-1.25,0,212.59842)"><g
       id="g12"><path
         d="M 366.293,35.286 428.375,33.34 416.105,85.305 366.293,35.286 z"
         style="fill:#fd0000;fill-opacity:1;fill-rule:nonzero;stroke:none"
         id="path14" /><path
         d="m 211.555,103.934 -18.164,-47.078 73.808,-13.828 -5.668,47.105 -49.976,13.801 z"
         style="fill:#f80000;fill-opacity:1;fill-rule:nonzero;stroke:none"
         id="path16" /><g
         id="g18"
         transform="matrix(1,0,0,-1,0,170.07873)"><path
           d="m 261.531,79.945 -68.14,33.278"
           style="fill:none;stroke:#ffffff;stroke-opacity:1;stroke-width:0.8;stroke-linecap:butt;stroke-linejoin:miter;stroke-miterlimit:4;stroke-dasharray:none"
           id="path20" /></g><path
         d="M 49.145,60.602 114.164,44.649 87.703,104.251 49.145,60.602 z"
         style="fill:#fd0000;fill-opacity:1;fill-rule:nonzero;stroke:none"
         id="path22" /><g
         id="g24"
         transform="matrix(1,0,0,-1,0,170.07873)"><path
           d="M 87.703,31.484 10.59,118.781"
           style="fill:none;stroke:#000000;stroke-opacity:1;stroke-width:0.8;stroke-linecap:butt;stroke-linejoin:miter;stroke-miterlimit:4;stroke-dasharray:none"
           id="path26" /></g><g
         id="g28"
         transform="matrix(1,0,0,-1,0,170.07873)"><path
           d="m 10.59,118.781 130.031,31.903"
           style="fill:none;stroke:#000000;stroke-opacity:1;stroke-width:0.8;stroke-linecap:butt;stroke-linejoin:miter;stroke-miterlimit:4;stroke-dasharray:none"
           id="path30" /></g><g
         id="g32"
         transform="matrix(1,0,0,-1,0,170.07873)"><path
           d="m 87.703,31.484 52.918,119.2"
           style="fill:none;stroke:#000000;stroke-opacity:1;stroke-width:0.8;stroke-linecap:butt;stroke-linejoin:miter;stroke-miterlimit:4;stroke-dasharray:none"
           id="path34" /></g><g
         id="g36"
         transform="matrix(1,0,0,-1,0,170.07873)"><path
           d="m 87.703,31.484 0,68.688"
           style="fill:none;stroke:#000000;stroke-opacity:1;stroke-width:0.8;stroke-linecap:butt;stroke-linejoin:miter;stroke-miterlimit:4;stroke-dasharray:0.8,1.6;stroke-dashoffset:0"
           id="path38" /></g><g
         id="g40"
         transform="matrix(1,0,0,-1,0,170.07873)"><path
           d="M 10.59,118.781 87.703,100.172"
           style="fill:none;stroke:#000000;stroke-opacity:1;stroke-width:0.8;stroke-linecap:butt;stroke-linejoin:miter;stroke-miterlimit:4;stroke-dasharray:0.8,1.6;stroke-dashoffset:0"
           id="path42" /></g><g
         id="g44"
         transform="matrix(1,0,0,-1,0,170.07873)"><path
           d="m 87.703,100.172 52.918,50.512"
           style="fill:none;stroke:#000000;stroke-opacity:1;stroke-width:0.8;stroke-linecap:butt;stroke-linejoin:miter;stroke-miterlimit:4;stroke-dasharray:0.8,1.6;stroke-dashoffset:0"
           id="path46" /></g><g
         id="g48"
         transform="matrix(1,0,0,-1,0,170.07873)"><path
           d="m 240.738,33.105 -77.113,87.301"
           style="fill:none;stroke:#000000;stroke-opacity:1;stroke-width:0.8;stroke-linecap:butt;stroke-linejoin:miter;stroke-miterlimit:4;stroke-dasharray:none"
           id="path50" /></g><g
         id="g52"
         transform="matrix(1,0,0,-1,0,170.07873)"><path
           d="m 163.625,120.406 130.031,31.903"
           style="fill:none;stroke:#000000;stroke-opacity:1;stroke-width:0.8;stroke-linecap:butt;stroke-linejoin:miter;stroke-miterlimit:4;stroke-dasharray:none"
           id="path54" /></g><g
         id="g56"
         transform="matrix(1,0,0,-1,0,170.07873)"><path
           d="m 240.738,33.105 52.918,119.204"
           style="fill:none;stroke:#000000;stroke-opacity:1;stroke-width:0.8;stroke-linecap:butt;stroke-linejoin:miter;stroke-miterlimit:4;stroke-dasharray:none"
           id="path58" /></g><g
         id="g60"
         transform="matrix(1,0,0,-1,0,170.07873)"><path
           d="m 240.738,33.105 0,68.692"
           style="fill:none;stroke:#000000;stroke-opacity:1;stroke-width:0.8;stroke-linecap:butt;stroke-linejoin:miter;stroke-miterlimit:4;stroke-dasharray:0.8,1.6;stroke-dashoffset:0"
           id="path62" /></g><g
         id="g64"
         transform="matrix(1,0,0,-1,0,170.07873)"><path
           d="m 163.625,120.406 77.113,-18.609"
           style="fill:none;stroke:#000000;stroke-opacity:1;stroke-width:0.8;stroke-linecap:butt;stroke-linejoin:miter;stroke-miterlimit:4;stroke-dasharray:0.8,1.6;stroke-dashoffset:0"
           id="path66" /></g><g
         id="g68"
         transform="matrix(1,0,0,-1,0,170.07873)"><path
           d="m 240.738,101.797 52.918,50.512"
           style="fill:none;stroke:#000000;stroke-opacity:1;stroke-width:0.8;stroke-linecap:butt;stroke-linejoin:miter;stroke-miterlimit:4;stroke-dasharray:0.8,1.6;stroke-dashoffset:0"
           id="path70" /></g><g
         id="g72"
         transform="matrix(1,0,0,-1,0,170.07873)"><path
           d="m 394.195,35.422 -77.113,87.301"
           style="fill:none;stroke:#000000;stroke-opacity:1;stroke-width:0.8;stroke-linecap:butt;stroke-linejoin:miter;stroke-miterlimit:4;stroke-dasharray:none"
           id="path74" /></g><g
         id="g76"
         transform="matrix(1,0,0,-1,0,170.07873)"><path
           d="m 317.082,122.723 130.035,31.902"
           style="fill:none;stroke:#000000;stroke-opacity:1;stroke-width:0.8;stroke-linecap:butt;stroke-linejoin:miter;stroke-miterlimit:4;stroke-dasharray:none"
           id="path78" /></g><g
         id="g80"
         transform="matrix(1,0,0,-1,0,170.07873)"><path
           d="m 394.195,35.422 52.922,119.203"
           style="fill:none;stroke:#000000;stroke-opacity:1;stroke-width:0.8;stroke-linecap:butt;stroke-linejoin:miter;stroke-miterlimit:4;stroke-dasharray:none"
           id="path82" /></g><g
         id="g84"
         transform="matrix(1,0,0,-1,0,170.07873)"><path
           d="m 394.195,35.422 0,68.691"
           style="fill:none;stroke:#000000;stroke-opacity:1;stroke-width:0.8;stroke-linecap:butt;stroke-linejoin:miter;stroke-miterlimit:4;stroke-dasharray:0.8,1.6;stroke-dashoffset:0"
           id="path86" /></g><g
         id="g88"
         transform="matrix(1,0,0,-1,0,170.07873)"><path
           d="m 317.082,122.723 77.113,-18.61"
           style="fill:none;stroke:#000000;stroke-opacity:1;stroke-width:0.8;stroke-linecap:butt;stroke-linejoin:miter;stroke-miterlimit:4;stroke-dasharray:0.8,1.6;stroke-dashoffset:0"
           id="path90" /></g><g
         id="g92"
         transform="matrix(1,0,0,-1,0,170.07873)"><path
           d="m 394.195,104.113 52.922,50.512"
           style="fill:none;stroke:#000000;stroke-opacity:1;stroke-width:0.8;stroke-linecap:butt;stroke-linejoin:miter;stroke-miterlimit:4;stroke-dasharray:0.8,1.6;stroke-dashoffset:0"
           id="path94" /></g><text
         transform="matrix(1,0,0,-1,74.934564,72.128853)"
         id="text96"><tspan
           style="fill:#000000;fill-opacity:1;fill-rule:nonzero;stroke:none;font-family:cmr10;font-variant:normal;font-weight:normal;font-size:19.2;writing-mode:lr;-inkscape-font-specification:Cmr10"
           x="0"
           y="0"
           id="tspan98">1</tspan><tspan
           style="fill:#000000;fill-opacity:1;fill-rule:nonzero;stroke:none;font-family:cmr10;font-variant:normal;font-weight:normal;font-size:19.2;writing-mode:lr;-inkscape-font-specification:Cmr10"
           x="17.646317"
           y="-62.398637"
           id="tspan100">2</tspan><tspan
           style="fill:#000000;fill-opacity:1;fill-rule:nonzero;stroke:none;font-family:cmr10;font-variant:normal;font-weight:normal;font-size:19.2;writing-mode:lr;-inkscape-font-specification:Cmr10"
           x="-69.163123"
           y="40.789882"
           id="tspan102">3</tspan><tspan
           style="fill:#000000;fill-opacity:1;fill-rule:nonzero;stroke:none;font-family:cmr10;font-variant:normal;font-weight:normal;font-size:19.2;writing-mode:lr;-inkscape-font-specification:Cmr10"
           x="67.602682"
           y="63.311213"
           id="tspan104">4</tspan><tspan
           style="fill:#000000;fill-opacity:1;fill-rule:nonzero;stroke:none;font-family:cmr10;font-variant:normal;font-weight:normal;font-size:19.2;writing-mode:lr;-inkscape-font-specification:Cmr10"
           x="172.51356"
           y="-59.122829"
           id="tspan106">2</tspan><tspan
           style="fill:#000000;fill-opacity:1;fill-rule:nonzero;stroke:none;font-family:cmr10;font-variant:normal;font-weight:normal;font-size:19.2;writing-mode:lr;-inkscape-font-specification:Cmr10"
           x="326.88691"
           y="-62.808134"
           id="tspan108">2</tspan><tspan
           style="fill:#000000;fill-opacity:1;fill-rule:nonzero;stroke:none;font-family:cmr10;font-variant:normal;font-weight:normal;font-size:19.2;writing-mode:lr;-inkscape-font-specification:Cmr10"
           x="217.96564"
           y="67.815398"
           id="tspan110">4</tspan><tspan
           style="fill:#000000;fill-opacity:1;fill-rule:nonzero;stroke:none;font-family:cmr10;font-variant:normal;font-weight:normal;font-size:19.2;writing-mode:lr;-inkscape-font-specification:Cmr10"
           x="357.18828"
           y="73.95769"
           id="tspan112">4</tspan><tspan
           style="fill:#000000;fill-opacity:1;fill-rule:nonzero;stroke:none;font-family:cmr10;font-variant:normal;font-weight:normal;font-size:19.2;writing-mode:lr;-inkscape-font-specification:Cmr10"
           x="80.380877"
           y="14.781811"
           id="tspan114">3</tspan><tspan
           style="fill:#000000;fill-opacity:1;fill-rule:nonzero;stroke:none;font-family:cmr10;font-variant:normal;font-weight:normal;font-size:19.2;writing-mode:lr;-inkscape-font-specification:Cmr10"
           x="232.70688"
           y="16.41975"
           id="tspan116">3</tspan><tspan
           style="fill:#000000;fill-opacity:1;fill-rule:nonzero;stroke:none;font-family:cmr10;font-variant:normal;font-weight:normal;font-size:19.2;writing-mode:lr;-inkscape-font-specification:Cmr10"
           x="157.27847"
           y="19.906508"
           id="tspan118">1</tspan><tspan
           style="fill:#000000;fill-opacity:1;fill-rule:nonzero;stroke:none;font-family:cmr10;font-variant:normal;font-weight:normal;font-size:19.2;writing-mode:lr;-inkscape-font-specification:Cmr10"
           x="307.14758"
           y="1.8894202"
           id="tspan120">1</tspan></text>
<g
         id="g122"
         transform="matrix(1,0,0,-1,0,170.07873)"><path
           d="M 490.395,63.891 555.41,79.84 528.953,20.242 490.395,63.891 z"
           style="fill:none;stroke:#000000;stroke-opacity:1;stroke-width:0.8;stroke-linecap:butt;stroke-linejoin:miter;stroke-miterlimit:4;stroke-dasharray:none"
           id="path124" /></g><text
         transform="matrix(1,0,0,-1,13.969557,136.04541)"
         id="text126"><tspan
           style="fill:#000000;fill-opacity:1;fill-rule:nonzero;stroke:none;font-family:cmr10;font-variant:normal;font-weight:normal;font-size:19.2;writing-mode:lr;-inkscape-font-specification:Cmr10"
           x="0 7.4496 17.0496 153.4464 160.896 171.552 318.8871552 326.3367552 334.8423552"
           y="0"
           sodipodi:role="line"
           id="tspan128">(a)(b)(c)</tspan></text>
<path
         d="m 8.34,18.153 0.187,-0.07 0.059,-0.024 0.059,-0.019 0.062,-0.016 0.059,-0.019 0.058,-0.012 0.117,-0.031 0.114,-0.024 0.109,-0.019 0.113,-0.012 0.106,-0.012 0.211,-0.015 0.101,-0.004 0.094,-0.004 0.285,0 0,0.441 c -0.441,0 -0.687,0 -1.07,0.102 0.461,0.164 0.887,0.183 1.226,0.183 0.508,0 0.594,-0.019 0.954,-0.121 -0.305,-0.14 -0.344,-0.164 -1.11,-0.164 l 0,-0.441 c 0.528,0 1.633,0 1.633,0.625 0,0.488 -0.711,0.543 -1.477,0.543 -0.418,0 -1.125,-0.035 -1.871,-0.379 -0.468,0.242 -0.808,0.617 -0.808,1.164 0,1.23 1.98,1.961 3.793,1.961 0.324,0 1.047,0 1.855,-0.571 0.223,-0.16 0.262,-0.195 0.406,-0.195 0.258,0 0.543,0.258 0.543,0.543 0,0.379 -1.23,1.145 -2.601,1.145 -2.32,0 -4.496,-1.348 -4.496,-2.883 0,-0.867 0.719,-1.367 0.804,-1.43 C 6.664,17.727 6.02,16.598 6.02,15.676 c 0,-1.316 1.152,-2.543 3.289,-2.543 2.664,0 3.789,1.77 3.789,2.071 0,0.125 -0.102,0.203 -0.223,0.203 -0.102,0 -0.156,-0.078 -0.203,-0.137 -0.281,-0.461 -0.762,-1.211 -3.184,-1.211 -1.226,0 -2.945,0.301 -2.945,1.735 0,0.683 0.562,1.753 1.797,2.359 z"
         style="fill:#000000;fill-opacity:1;fill-rule:nonzero;stroke:none"
         id="path130" /><path
         d="m 16.641,11.446 -0.004,-0.016 -0.008,-0.019 -0.004,-0.016 -0.004,-0.019 -0.008,-0.02 -0.004,-0.027 -0.007,-0.02 -0.004,-0.019 -0.012,-0.043 -0.024,-0.094 -0.007,-0.043 -0.008,-0.023 -0.004,-0.02 -0.008,-0.02 -0.004,-0.019 -0.004,-0.023 -0.004,-0.016 -0.003,-0.02 -0.004,-0.015 -0.004,-0.012 0,-0.016 -0.004,-0.011 0,-0.016 -0.004,-0.008 0,-0.019 c 0,-0.313 0.25,-0.45 0.48,-0.45 0.254,0 0.477,0.184 0.551,0.309 0.07,0.129 0.184,0.578 0.254,0.875 0.066,0.266 0.223,0.918 0.309,1.27 0.082,0.312 0.172,0.621 0.242,0.945 0.148,0.582 0.18,0.687 0.586,1.269 0.402,0.567 1.066,1.297 2.121,1.297 0.816,0 0.828,-0.718 0.828,-0.988 0,-0.844 -0.602,-2.41 -0.828,-3.004 -0.156,-0.398 -0.219,-0.523 -0.219,-0.765 0,-0.747 0.629,-1.208 1.348,-1.208 1.406,0 2.027,1.942 2.027,2.161 0,0.179 -0.183,0.179 -0.219,0.179 -0.203,0 -0.218,-0.078 -0.277,-0.238 -0.316,-1.129 -0.926,-1.707 -1.488,-1.707 -0.301,0 -0.356,0.191 -0.356,0.492 0,0.321 0.067,0.508 0.325,1.145 0.167,0.433 0.75,1.929 0.75,2.718 0,1.375 -1.086,1.61 -1.833,1.61 -1.171,0 -1.964,-0.715 -2.386,-1.281 -0.102,0.972 -0.93,1.281 -1.512,1.281 -0.609,0 -0.934,-0.438 -1.117,-0.758 -0.305,-0.523 -0.504,-1.332 -0.504,-1.402 0,-0.18 0.199,-0.18 0.242,-0.18 0.195,0 0.207,0.043 0.309,0.422 0.211,0.836 0.48,1.523 1.031,1.523 0.367,0 0.461,-0.308 0.461,-0.687 0,-0.274 -0.125,-0.789 -0.227,-1.172 -0.097,-0.383 -0.234,-0.961 -0.308,-1.27 l -0.453,-1.812 z"
         style="fill:#000000;fill-opacity:1;fill-rule:nonzero;stroke:none"
         id="path132" /><path
         d="m 29.297,19.93 0.004,0.004 0,0.004 0.004,0.004 0,0.012 0.004,0.008 0,0.007 0.007,0.016 0,0.008 0.004,0.008 0,0.007 0.004,0.012 0,0.008 0.008,0.019 0.004,0.016 0,0.016 0.004,0.008 0,0.007 0.004,0.008 0,0.008 0.008,0.008 0,0.012 0.003,0.003 0,0.02 0.004,0 c 0,0.078 -0.062,0.203 -0.234,0.203 -0.273,0 -1.449,-0.113 -1.801,-0.144 -0.113,-0.012 -0.312,-0.024 -0.312,-0.325 0,-0.195 0.199,-0.195 0.371,-0.195 0.676,0 0.676,-0.102 0.676,-0.215 0,-0.097 -0.032,-0.187 -0.059,-0.312 L 26.008,11.18 c -0.067,-0.25 -0.067,-0.273 -0.067,-0.308 0,-0.211 0.168,-0.45 0.481,-0.45 0.375,0 0.562,0.282 0.648,0.586 0.028,0.059 0.637,2.547 0.692,2.743 1,-0.102 1.8,-0.426 1.8,-1.157 0,-0.07 0,-0.14 -0.023,-0.281 -0.055,-0.215 -0.055,-0.281 -0.055,-0.441 0,-1 0.813,-1.45 1.493,-1.45 1.375,0 1.793,2.145 1.793,2.161 0,0.179 -0.18,0.179 -0.227,0.179 -0.191,0 -0.215,-0.066 -0.281,-0.34 -0.168,-0.605 -0.551,-1.605 -1.242,-1.605 -0.379,0 -0.493,0.352 -0.493,0.73 0,0.243 0,0.27 0.082,0.633 0.02,0.043 0.079,0.285 0.079,0.446 0,1.25 -1.7,1.445 -2.293,1.492 0.414,0.254 0.929,0.719 1.167,0.929 0.723,0.676 1.43,1.34 2.219,1.34 0.168,0 0.352,-0.043 0.469,-0.179 -0.609,-0.102 -0.738,-0.578 -0.738,-0.793 0,-0.309 0.242,-0.52 0.562,-0.52 0.391,0 0.805,0.309 0.805,0.899 0,0.468 -0.336,0.988 -1.078,0.988 -0.809,0 -1.539,-0.574 -2.262,-1.238 -0.594,-0.567 -1.055,-1.004 -1.641,-1.243 l 1.399,5.629 z"
         style="fill:#000000;fill-opacity:1;fill-rule:nonzero;stroke:none"
         id="path134" /><path
         d="m 54.293,20.172 0.176,0 0.031,0.008 0.031,0 0.082,0.012 0.032,0.004 0.027,0.004 0.027,0.008 0.024,0.007 0.054,0.016 0.02,0.012 0.023,0.012 0.02,0.015 0.023,0.012 0.02,0.023 0.015,0.016 0.016,0.019 0.016,0.024 0.004,0.008 0.007,0.011 0.004,0.012 0.008,0.02 0.004,0.011 0.004,0.016 0.004,0.012 0.008,0.015 0.004,0.016 0,0.016 0.003,0.019 0,0.051 c 0,0.406 -0.386,0.406 -0.664,0.406 l -12.086,0 c -0.285,0 -0.664,0 -0.664,-0.406 0,-0.399 0.379,-0.399 0.68,-0.399 l 12.047,0 z"
         style="fill:#000000;fill-opacity:1;fill-rule:nonzero;stroke:none"
         id="path136" /><path
         d="m 54.316,16.255 0.051,0 0.059,0.003 0.082,0 0.031,0.004 0.027,0.004 0.028,0 0.027,0.004 0.027,0.008 0.028,0.004 0.027,0.008 0.024,0.007 0.027,0.008 0.047,0.024 0.019,0.011 0.024,0.016 0.039,0.031 0.015,0.02 0.008,0.008 0.008,0.015 0.008,0.008 0.016,0.024 0.007,0.023 0.008,0.012 0.004,0.015 0.004,0.012 0.004,0.02 0.008,0.015 0.004,0.016 0,0.015 0.003,0.016 0,0.055 c 0,0.402 -0.386,0.402 -0.687,0.402 l -12.047,0 c -0.301,0 -0.68,0 -0.68,-0.402 0,-0.406 0.379,-0.406 0.664,-0.406 l 12.086,0 z"
         style="fill:#000000;fill-opacity:1;fill-rule:nonzero;stroke:none"
         id="path138" /><path
         d="m 64.562,18.153 0.063,-0.023 0.066,-0.024 0.059,-0.023 0.062,-0.024 0.055,-0.019 0.063,-0.016 0.058,-0.019 0.059,-0.012 0.117,-0.031 0.113,-0.024 0.11,-0.019 0.113,-0.012 0.105,-0.012 0.211,-0.015 0.102,-0.004 0.098,-0.004 0.281,0 0,0.441 c -0.442,0 -0.688,0 -1.07,0.102 0.464,0.164 0.886,0.183 1.23,0.183 0.504,0 0.59,-0.019 0.949,-0.121 -0.304,-0.14 -0.344,-0.164 -1.109,-0.164 l 0,-0.441 c 0.527,0 1.633,0 1.633,0.625 0,0.488 -0.711,0.543 -1.473,0.543 -0.422,0 -1.129,-0.035 -1.871,-0.379 -0.473,0.242 -0.813,0.617 -0.813,1.164 0,1.23 1.981,1.961 3.797,1.961 0.325,0 1.043,0 1.852,-0.571 0.223,-0.16 0.262,-0.195 0.406,-0.195 0.258,0 0.543,0.258 0.543,0.543 0,0.379 -1.23,1.145 -2.601,1.145 -2.321,0 -4.497,-1.348 -4.497,-2.883 0,-0.867 0.719,-1.367 0.805,-1.43 -1.191,-0.668 -1.836,-1.797 -1.836,-2.719 0,-1.316 1.153,-2.543 3.289,-2.543 2.664,0 3.789,1.77 3.789,2.071 0,0.125 -0.097,0.203 -0.222,0.203 -0.098,0 -0.157,-0.078 -0.2,-0.137 -0.285,-0.461 -0.765,-1.211 -3.187,-1.211 -1.227,0 -2.945,0.301 -2.945,1.735 0,0.683 0.562,1.753 1.796,2.359 z"
         style="fill:#000000;fill-opacity:1;fill-rule:nonzero;stroke:none"
         id="path140" /><path
         d="m 80.344,20.141 -8.41,0 0,-0.504 0.336,0 c 1.089,0 1.121,-0.144 1.121,-0.632 l 0,-7.297 c 0,-0.485 -0.032,-0.641 -1.121,-0.641 l -0.336,0 0,-0.508 c 0.011,0 1.609,0.059 2.148,0.059 0.574,0 2.258,-0.043 2.465,-0.059 l 0,0.508 -0.492,0 c -1.332,0 -1.332,0.184 -1.332,0.652 l 0,3.387 1.379,0 c 1.41,0 1.601,-0.426 1.601,-1.652 l 0.485,0 0,3.808 -0.485,0 c 0,-1.215 -0.191,-1.652 -1.601,-1.652 l -1.379,0 0,3.477 c 0,0.437 0.023,0.55 0.683,0.55 l 1.977,0 c 2.273,0 2.648,-0.765 2.906,-2.742 l 0.481,0 -0.426,3.246 z"
         style="fill:#000000;fill-opacity:1;fill-rule:nonzero;stroke:none"
         id="path142" /><path
         d="m 516.504,60.329 0.058,-0.024 0.067,-0.023 0.062,-0.024 0.059,-0.023 0.059,-0.02 0.058,-0.015 0.063,-0.02 0.054,-0.011 0.063,-0.016 0.055,-0.012 0.113,-0.027 0.109,-0.02 0.114,-0.011 0.105,-0.012 0.211,-0.016 0.101,-0.004 0.098,-0.004 0.285,0 0,0.442 c -0.441,0 -0.691,0 -1.07,0.101 0.461,0.165 0.887,0.184 1.227,0.184 0.507,0 0.589,-0.019 0.953,-0.121 -0.305,-0.141 -0.344,-0.164 -1.11,-0.164 l 0,-0.442 c 0.524,0 1.629,0 1.629,0.625 0,0.489 -0.707,0.543 -1.472,0.543 -0.422,0 -1.125,-0.035 -1.872,-0.378 -0.468,0.242 -0.808,0.617 -0.808,1.164 0,1.234 1.98,1.961 3.793,1.961 0.324,0 1.047,0 1.855,-0.571 0.223,-0.156 0.258,-0.195 0.407,-0.195 0.257,0 0.542,0.262 0.542,0.543 0,0.383 -1.234,1.148 -2.601,1.148 -2.32,0 -4.5,-1.351 -4.5,-2.886 0,-0.864 0.723,-1.368 0.809,-1.43 -1.192,-0.668 -1.836,-1.797 -1.836,-2.719 0,-1.316 1.148,-2.543 3.289,-2.543 2.664,0 3.789,1.77 3.789,2.074 0,0.122 -0.102,0.2 -0.223,0.2 -0.101,0 -0.156,-0.078 -0.203,-0.137 -0.281,-0.461 -0.766,-1.211 -3.188,-1.211 -1.226,0 -2.941,0.301 -2.941,1.734 0,0.684 0.563,1.754 1.797,2.36 z"
         style="fill:#000000;fill-opacity:1;fill-rule:nonzero;stroke:none"
         id="path144" /><path
         d="m 524.805,53.626 -0.004,-0.02 -0.008,-0.019 -0.004,-0.016 -0.004,-0.02 -0.008,-0.019 -0.004,-0.024 -0.007,-0.023 -0.004,-0.02 -0.012,-0.043 -0.016,-0.046 -0.011,-0.047 -0.008,-0.039 -0.008,-0.028 -0.023,-0.117 -0.004,-0.015 -0.004,-0.012 0,-0.016 -0.004,-0.012 0,-0.011 -0.004,-0.008 0,-0.024 c 0,-0.308 0.25,-0.449 0.477,-0.449 0.253,0 0.48,0.184 0.55,0.309 0.075,0.129 0.188,0.578 0.254,0.875 0.071,0.265 0.227,0.918 0.309,1.273 0.086,0.309 0.176,0.617 0.242,0.942 0.152,0.582 0.184,0.687 0.59,1.273 0.398,0.563 1.062,1.293 2.121,1.293 0.812,0 0.824,-0.719 0.824,-0.988 0,-0.844 -0.597,-2.406 -0.824,-3.004 -0.156,-0.395 -0.219,-0.524 -0.219,-0.766 0,-0.746 0.629,-1.207 1.344,-1.207 1.41,0 2.031,1.942 2.031,2.16 0,0.18 -0.183,0.18 -0.219,0.18 -0.203,0 -0.218,-0.078 -0.277,-0.238 -0.32,-1.129 -0.926,-1.707 -1.488,-1.707 -0.301,0 -0.36,0.195 -0.36,0.492 0,0.32 0.071,0.508 0.325,1.145 0.172,0.437 0.754,1.929 0.754,2.718 0,1.375 -1.09,1.61 -1.832,1.61 -1.172,0 -1.965,-0.715 -2.387,-1.282 -0.102,0.973 -0.934,1.282 -1.516,1.282 -0.605,0 -0.929,-0.438 -1.113,-0.758 -0.309,-0.524 -0.504,-1.332 -0.504,-1.403 0,-0.179 0.195,-0.179 0.242,-0.179 0.192,0 0.207,0.043 0.309,0.426 0.207,0.832 0.48,1.519 1.031,1.519 0.363,0 0.461,-0.305 0.461,-0.687 0,-0.27 -0.125,-0.789 -0.227,-1.172 -0.097,-0.383 -0.234,-0.961 -0.312,-1.27 l -0.449,-1.808 z"
         style="fill:#000000;fill-opacity:1;fill-rule:nonzero;stroke:none"
         id="path146" /><path
         d="m 536.68,61.462 0,0.003 0.008,0.008 0,0.004 0.003,0.008 0.004,0.004 0.004,0.008 0.004,0.011 0.008,0.016 0.008,0.023 0.004,0.008 0.007,0.032 0.004,0.011 0.008,0.012 0.004,0.012 0.004,0.015 0.004,0.012 0.004,0.016 0,0.019 0.004,0.012 0.004,0.016 0.004,0.011 0,0.016 0.007,0.016 0,0.027 0.004,0.019 0,0.012 c 0,0.367 -0.324,0.594 -0.629,0.594 -0.414,0 -0.527,-0.309 -0.574,-0.461 l -1.551,-4.367 c -0.047,-0.125 -0.047,-0.153 -0.047,-0.164 0,-0.16 0.426,-0.258 0.438,-0.258 0.09,0 0.105,0.051 0.172,0.168 l 2.09,4.137 z"
         style="fill:#000000;fill-opacity:1;fill-rule:nonzero;stroke:none"
         id="path148" /><path
         d="m 542.906,62.106 0,0.008 0.004,0.008 0,0.008 0.004,0.003 0,0.004 0.004,0.008 0,0.008 0.004,0.008 0,0.008 0.004,0.007 0,0.008 0.004,0.012 0.004,0.008 0.007,0.039 0.004,0.012 0,0.007 0.004,0.008 0,0.008 0.004,0.008 0,0.015 0.008,0.004 0,0.016 0.004,0 0,0.008 c 0,0.078 -0.059,0.203 -0.235,0.203 -0.273,0 -1.445,-0.113 -1.8,-0.145 -0.114,-0.011 -0.313,-0.023 -0.313,-0.324 0,-0.195 0.199,-0.195 0.371,-0.195 0.676,0 0.676,-0.102 0.676,-0.215 0,-0.098 -0.035,-0.184 -0.059,-0.313 l -1.992,-7.984 c -0.066,-0.25 -0.066,-0.273 -0.066,-0.309 0,-0.21 0.168,-0.449 0.48,-0.449 0.375,0 0.563,0.282 0.653,0.59 0.023,0.055 0.632,2.543 0.687,2.738 1,-0.097 1.801,-0.421 1.801,-1.156 0,-0.07 0,-0.14 -0.023,-0.281 -0.055,-0.215 -0.055,-0.281 -0.055,-0.442 0,-1 0.816,-1.449 1.492,-1.449 1.375,0 1.793,2.145 1.793,2.16 0,0.18 -0.18,0.18 -0.227,0.18 -0.191,0 -0.214,-0.066 -0.281,-0.34 -0.168,-0.605 -0.551,-1.605 -1.238,-1.605 -0.383,0 -0.496,0.351 -0.496,0.73 0,0.242 0,0.27 0.082,0.633 0.019,0.047 0.078,0.285 0.078,0.445 0,1.254 -1.699,1.446 -2.293,1.493 0.414,0.253 0.93,0.718 1.168,0.929 0.723,0.676 1.43,1.34 2.215,1.34 0.172,0 0.359,-0.043 0.472,-0.18 -0.609,-0.101 -0.734,-0.578 -0.734,-0.789 0,-0.312 0.238,-0.523 0.559,-0.523 0.39,0 0.804,0.312 0.804,0.898 0,0.469 -0.336,0.989 -1.078,0.989 -0.808,0 -1.539,-0.575 -2.261,-1.239 -0.594,-0.562 -1.055,-1 -1.641,-1.242 l 1.402,5.629 z"
         style="fill:#000000;fill-opacity:1;fill-rule:nonzero;stroke:none"
         id="path150" /><path
         d="m 553.918,55.926 4.312,0 c 0.184,0 0.524,0 0.524,0.344 0,0.348 -0.324,0.348 -0.524,0.348 l -4.312,0 0,4.332 c 0,0.187 0,0.519 -0.344,0.519 -0.355,0 -0.355,-0.32 -0.355,-0.519 l 0,-4.332 -4.328,0 c -0.18,0 -0.528,0 -0.528,-0.336 0,-0.356 0.325,-0.356 0.528,-0.356 l 4.328,0 0,-4.336 c 0,-0.179 0,-0.519 0.343,-0.519 0.356,0 0.356,0.324 0.356,0.519 l 0,4.336 z"
         style="fill:#000000;fill-opacity:1;fill-rule:nonzero;stroke:none"
         id="path152" /><path
         d="m 566.953,58.551 0.004,0.012 0,0.012 0.004,0.015 0,0.012 0.008,0.024 0,0.011 0.004,0.016 0.004,0.012 0,0.015 0.003,0.012 0,0.043 0.004,0.012 0,0.015 c 0,0.09 -0.054,0.196 -0.187,0.196 -0.141,0 -0.731,-0.473 -1.016,-0.934 -0.136,0.289 -0.605,0.934 -1.515,0.934 l 0,-0.395 c 0.988,0 1.261,-1.09 1.261,-1.226 0,-0.067 -0.031,-0.157 -0.047,-0.207 l -0.664,-2.614 c -0.066,-0.242 -0.066,-0.265 -0.25,-0.496 -0.55,-0.652 -1.214,-1.027 -1.765,-1.027 -0.52,0 -1.024,0.363 -1.024,1.363 0,0.754 0.407,2.305 0.735,2.867 0.64,1.133 1.363,1.34 1.754,1.34 l 0,0.395 c -1.801,0 -3.633,-1.989 -3.633,-4.02 0,-1.367 0.914,-2.34 2.129,-2.34 0.804,0 1.468,0.508 1.781,0.77 -0.012,-0.035 -0.457,-1.813 -0.516,-2.051 -0.191,-0.781 -0.207,-0.797 -1.078,-0.809 -0.172,0 -0.371,0 -0.371,-0.304 0,-0.09 0.07,-0.203 0.211,-0.203 0.465,0 0.984,0.054 1.465,0.054 0.484,0 1.078,-0.054 1.516,-0.054 0.125,0 0.281,0.043 0.281,0.308 0,0.199 -0.199,0.199 -0.371,0.199 -0.313,0 -0.692,0 -0.692,0.168 0,0.043 0,0.079 0.074,0.309 l 1.891,7.566 z"
         style="fill:#000000;fill-opacity:1;fill-rule:nonzero;stroke:none"
         id="path154" /><path
         d="m 588.168,62.352 0.168,0 0.035,0.004 0.027,0 0.055,0.008 0.031,0.004 0.055,0.008 0.031,0.007 0.047,0.016 0.028,0.008 0.019,0.012 0.027,0.011 0.039,0.032 0.036,0.035 0.015,0.019 0.012,0.012 0.008,0.012 0.011,0.023 0.004,0.012 0.008,0.015 0.004,0.012 0.004,0.016 0.004,0.012 0.008,0.031 0,0.019 0.004,0.016 0,0.051 c 0,0.406 -0.383,0.406 -0.664,0.406 l -12.082,0 c -0.286,0 -0.664,0 -0.664,-0.406 0,-0.395 0.378,-0.395 0.683,-0.395 l 12.047,0 z"
         style="fill:#000000;fill-opacity:1;fill-rule:nonzero;stroke:none"
         id="path156" /><path
         d="m 588.184,58.43 0.054,0 0.055,0.004 0.086,0 0.055,0.008 0.031,0 0.027,0.004 0.024,0.008 0.027,0.004 0.031,0.007 0.024,0.012 0.047,0.016 0.046,0.023 0.024,0.016 0.015,0.015 0.02,0.016 0.016,0.02 0.015,0.023 0.012,0.008 0.016,0.023 0.007,0.024 0.008,0.011 0.02,0.079 0,0.015 0.004,0.016 0,0.055 c 0,0.402 -0.383,0.402 -0.68,0.402 l -12.047,0 c -0.305,0 -0.683,0 -0.683,-0.402 0,-0.407 0.378,-0.407 0.664,-0.407 l 12.082,0 z"
         style="fill:#000000;fill-opacity:1;fill-rule:nonzero;stroke:none"
         id="path158" /><path
         d="m 598.48,60.329 0.063,-0.024 0.059,-0.023 0.062,-0.024 0.059,-0.023 0.062,-0.02 0.063,-0.015 0.058,-0.02 0.059,-0.011 0.055,-0.016 0.062,-0.012 0.113,-0.027 0.11,-0.02 0.218,-0.023 0.106,-0.008 0.101,-0.008 0.098,-0.004 0.102,-0.004 0.285,0 0,0.442 c -0.442,0 -0.688,0 -1.07,0.101 0.46,0.165 0.886,0.184 1.226,0.184 0.508,0 0.59,-0.019 0.949,-0.121 -0.304,-0.141 -0.34,-0.164 -1.105,-0.164 l 0,-0.442 c 0.527,0 1.633,0 1.633,0.625 0,0.489 -0.711,0.543 -1.477,0.543 -0.422,0 -1.125,-0.035 -1.875,-0.378 -0.465,0.242 -0.808,0.617 -0.808,1.164 0,1.234 1.984,1.961 3.796,1.961 0.325,0 1.047,0 1.856,-0.571 0.219,-0.156 0.262,-0.195 0.406,-0.195 0.258,0 0.543,0.262 0.543,0.543 0,0.383 -1.234,1.148 -2.601,1.148 -2.321,0 -4.497,-1.351 -4.497,-2.886 0,-0.864 0.719,-1.368 0.801,-1.43 -1.187,-0.668 -1.836,-1.797 -1.836,-2.719 0,-1.316 1.156,-2.543 3.293,-2.543 2.664,0 3.789,1.77 3.789,2.074 0,0.122 -0.101,0.2 -0.222,0.2 -0.102,0 -0.157,-0.078 -0.2,-0.137 -0.285,-0.461 -0.765,-1.211 -3.187,-1.211 -1.231,0 -2.945,0.301 -2.945,1.734 0,0.684 0.562,1.754 1.796,2.36 z"
         style="fill:#000000;fill-opacity:1;fill-rule:nonzero;stroke:none"
         id="path160" /><path
         d="m 614.262,62.317 -8.41,0 0,-0.504 0.336,0 c 1.089,0 1.117,-0.144 1.117,-0.633 l 0,-7.297 c 0,-0.48 -0.028,-0.64 -1.117,-0.64 l -0.336,0 0,-0.504 c 0.011,0 1.609,0.055 2.144,0.055 0.578,0 2.262,-0.043 2.469,-0.055 l 0,0.504 -0.496,0 c -1.328,0 -1.328,0.183 -1.328,0.652 l 0,3.387 1.375,0 c 1.414,0 1.605,-0.426 1.605,-1.652 l 0.484,0 0,3.808 -0.484,0 c 0,-1.215 -0.191,-1.652 -1.605,-1.652 l -1.375,0 0,3.476 c 0,0.438 0.019,0.551 0.675,0.551 l 1.985,0 c 2.269,0 2.648,-0.766 2.906,-2.742 l 0.477,0 -0.422,3.246 z"
         style="fill:#000000;fill-opacity:1;fill-rule:nonzero;stroke:none"
         id="path162" /><g
         id="g164"
         transform="matrix(1,0,0,-1,0,170.07873)"><path
           d="M 36.09,141.125 C 48.051,121.18 67.211,132.672 81.656,117.453"
           style="fill:none;stroke:#000000;stroke-opacity:1;stroke-width:0.8;stroke-linecap:butt;stroke-linejoin:miter;stroke-miterlimit:4;stroke-dasharray:none"
           id="path166" /></g><g
         id="g168"
         transform="matrix(-0.94897,-1,-1,0.94897,0,170.07873)"><path
           d="m 23.348,-101.61 1.161,-1.16 -4.059,1.16 4.059,1.161 -1.161,-1.161 z"
           style="fill:#000000;fill-opacity:1;fill-rule:evenodd;stroke:#000000;stroke-opacity:1;stroke-width:0.290149;stroke-linecap:butt;stroke-linejoin:miter;stroke-miterlimit:4;stroke-dasharray:none"
           id="path170" /></g><g
         id="g172"
         transform="matrix(1,0,0,-1,0,170.07873)"><path
           d="m 507.543,44.477 41.703,21.48"
           style="fill:none;stroke:#ff0000;stroke-opacity:1;stroke-width:0.8;stroke-linecap:butt;stroke-linejoin:miter;stroke-miterlimit:4;stroke-dasharray:none"
           id="path174" /></g><g
         id="g176"
         transform="matrix(1,0,0,-1,0,170.07873)"><path
           d="m 512.988,99.695 c -6.465,-13.8 -2.617,-30.906 12.504,-46.371"
           style="fill:none;stroke:#000000;stroke-opacity:1;stroke-width:0.8;stroke-linecap:butt;stroke-linejoin:miter;stroke-miterlimit:4;stroke-dasharray:none"
           id="path178" /></g><g
         id="g180"
         transform="matrix(-0.977785,-1,-1,0.977785,0,170.07873)"><path
           d="m -233.13,-295.303 1.143,-1.145 -4.003,1.144 4.005,1.144 -1.145,-1.143 z"
           style="fill:#000000;fill-opacity:1;fill-rule:evenodd;stroke:#000000;stroke-opacity:1;stroke-width:0.286002;stroke-linecap:butt;stroke-linejoin:miter;stroke-miterlimit:4;stroke-dasharray:none"
           id="path182" /></g><g
         id="g184"
         transform="matrix(1,0,0,-1,0,170.07873)"><path
           d="M 634.531,65.18 699.547,81.129 673.09,21.531 634.531,65.18 z"
           style="fill:none;stroke:#000000;stroke-opacity:1;stroke-width:0.8;stroke-linecap:butt;stroke-linejoin:miter;stroke-miterlimit:4;stroke-dasharray:none"
           id="path186" /></g><g
         id="g188"
         transform="matrix(1,0,0,-1,0,170.07873)"><path
           d="M 658.812,71.137 690.648,61.086"
           style="fill:none;stroke:#ff0000;stroke-opacity:1;stroke-width:0.8;stroke-linecap:butt;stroke-linejoin:miter;stroke-miterlimit:4;stroke-dasharray:none"
           id="path190" /></g><text
         transform="matrix(1,0,0,-1,452.50024,134.83213)"
         id="text192"><tspan
           style="fill:#000000;fill-opacity:1;fill-rule:nonzero;stroke:none;font-family:cmr10;font-variant:normal;font-weight:normal;font-size:19.2;writing-mode:lr;-inkscape-font-specification:Cmr10"
           x="0 7.4496 18.1056"
           y="0"
           sodipodi:role="line"
           id="tspan194">(d)</tspan><tspan
           style="fill:#000000;fill-opacity:1;fill-rule:nonzero;stroke:none;font-family:cmr10;font-variant:normal;font-weight:normal;font-size:19.2;writing-mode:lr;-inkscape-font-specification:Cmr10"
           x="138.4037184 145.8533184 154.3589184"
           y="-2.8663104"
           sodipodi:role="line"
           id="tspan196">(e)</tspan></text>
<path
         d="m 535.91,156.352 0,0.156 -0.004,0.012 0,0.051 -0.004,0.008 -0.004,0.023 0,0.02 -0.007,0.031 -0.008,0.019 -0.008,0.012 -0.004,0.012 -0.008,0.012 -0.019,0.019 -0.024,0.016 -0.015,0.004 -0.016,0.008 -0.008,0 -0.008,0.003 -0.011,0.004 -0.008,0 -0.012,0.004 -0.043,0 -0.011,0.004 -0.067,0 -0.016,0.004 -0.066,0 c -1,-1.031 -2.418,-1.031 -2.934,-1.031 l 0,-0.504 c 0.325,0 1.274,0 2.11,0.422 l 0,-8.364 c 0,-0.582 -0.047,-0.773 -1.496,-0.773 l -0.52,0 0,-0.504 c 0.567,0.055 1.969,0.055 2.613,0.055 0.649,0 2.047,0 2.614,-0.055 l 0,0.504 -0.512,0 c -1.453,0 -1.504,0.176 -1.504,0.773 l 0,9.055 z"
         style="fill:#000000;fill-opacity:1;fill-rule:nonzero;stroke:none"
         id="path198" /><path
         d="m 542.527,157.184 0.012,0.02 0.004,0.015 0.016,0.032 0.003,0.011 0.016,0.032 0.004,0.011 0.004,0.016 0.008,0.016 0,0.007 0.004,0.012 0.004,0.016 0.003,0.008 0.008,0.023 0,0.008 0.004,0.011 0,0.008 0.004,0.012 0,0.008 0.004,0.012 0,0.015 0.004,0.02 0,0.047 c 0,0.347 -0.317,0.621 -0.668,0.621 -0.43,0 -0.563,-0.356 -0.617,-0.532 l -1.496,-4.89 c -0.008,-0.02 -0.055,-0.168 -0.055,-0.18 0,-0.133 0.352,-0.25 0.441,-0.25 0.082,0 0.09,0.027 0.168,0.192 l 2.125,4.679 z"
         style="fill:#000000;fill-opacity:1;fill-rule:nonzero;stroke:none"
         id="path200" /><path
         d="m 479.117,101.77 1.711,1.66 c 2.512,2.227 3.484,3.098 3.484,4.711 0,1.844 -1.453,3.137 -3.421,3.137 -1.829,0 -3.024,-1.488 -3.024,-2.926 0,-0.902 0.813,-0.902 0.856,-0.902 0.281,0 0.843,0.191 0.843,0.855 0,0.418 -0.289,0.84 -0.855,0.84 -0.125,0 -0.164,0 -0.207,-0.015 0.367,1.05 1.242,1.644 2.176,1.644 1.468,0 2.164,-1.309 2.164,-2.633 0,-1.289 -0.809,-2.566 -1.696,-3.566 l -3.093,-3.453 c -0.188,-0.176 -0.188,-0.207 -0.188,-0.598 l 5.992,0 0.453,2.809 -0.406,0 c -0.082,-0.485 -0.191,-1.196 -0.351,-1.438 -0.117,-0.125 -1.18,-0.125 -1.532,-0.125 l -2.906,0 z"
         style="fill:#000000;fill-opacity:1;fill-rule:nonzero;stroke:none"
         id="path202" /><path
         d="m 488.426,111.684 0.012,0.02 0.003,0.019 0.016,0.032 0.004,0.011 0.016,0.031 0.003,0.012 0.004,0.016 0.008,0.012 0.004,0.011 0,0.012 0.004,0.016 0.004,0.007 0.008,0.024 0.004,0.008 0,0.019 0.004,0.012 0,0.008 0.003,0.011 0,0.016 0.004,0.02 0,0.046 c 0,0.348 -0.316,0.622 -0.668,0.622 -0.429,0 -0.558,-0.356 -0.617,-0.532 l -1.496,-4.89 c -0.008,-0.02 -0.055,-0.168 -0.055,-0.18 0,-0.133 0.352,-0.25 0.442,-0.25 0.082,0 0.09,0.027 0.168,0.191 l 2.125,4.676 z"
         style="fill:#000000;fill-opacity:1;fill-rule:nonzero;stroke:none"
         id="path204" /><path
         d="m 561.34,93.567 0.121,0.043 0.121,0.051 0.121,0.047 0.113,0.054 0.114,0.059 0.109,0.062 0.106,0.063 0.105,0.074 0.102,0.07 0.097,0.075 0.094,0.078 0.094,0.082 0.086,0.082 0.086,0.09 0.078,0.086 0.078,0.093 0.074,0.094 0.133,0.195 0.058,0.102 0.059,0.105 0.055,0.106 0.043,0.105 0.047,0.11 0.07,0.219 0.027,0.117 0.024,0.113 0.019,0.117 0.016,0.117 0.004,0.118 0.004,0.121 c 0,1.32 -1.422,2.226 -2.969,2.226 -1.633,0 -2.856,-0.972 -2.856,-2.195 0,-0.535 0.352,-0.844 0.825,-0.844 0.496,0 0.82,0.36 0.82,0.828 0,0.801 -0.762,0.801 -0.996,0.801 0.496,0.793 1.562,1.008 2.144,1.008 0.657,0 1.547,-0.359 1.547,-1.809 0,-0.199 -0.035,-1.133 -0.453,-1.843 -0.48,-0.774 -1.031,-0.821 -1.43,-0.84 -0.132,-0.016 -0.519,-0.047 -0.636,-0.047 -0.125,-0.016 -0.242,-0.031 -0.242,-0.192 0,-0.175 0.117,-0.175 0.39,-0.175 l 0.707,0 c 1.328,0 1.926,-1.098 1.926,-2.688 0,-2.187 -1.117,-2.656 -1.828,-2.656 -0.695,0 -1.906,0.269 -2.465,1.223 0.559,-0.079 1.063,0.277 1.063,0.89 0,0.582 -0.434,0.903 -0.911,0.903 -0.379,0 -0.898,-0.227 -0.898,-0.938 0,-1.469 1.5,-2.531 3.262,-2.531 1.964,0 3.437,1.469 3.437,3.109 0,1.328 -1.019,2.582 -2.695,2.922 z"
         style="fill:#000000;fill-opacity:1;fill-rule:nonzero;stroke:none"
         id="path206" /><path
         d="m 568.02,99.051 0.011,0.02 0.004,0.016 0.016,0.031 0.004,0.012 0.007,0.019 0.008,0.012 0.004,0.011 0.004,0.016 0.008,0.016 0,0.008 0.004,0.011 0.004,0.016 0.004,0.008 0.004,0.015 0.003,0.008 0,0.012 0.004,0.008 0,0.011 0.004,0.008 0,0.012 0.004,0.008 0,0.015 0.004,0.02 0,0.047 c 0,0.347 -0.32,0.621 -0.668,0.621 -0.43,0 -0.562,-0.352 -0.617,-0.531 l -1.496,-4.887 c -0.008,-0.02 -0.055,-0.172 -0.055,-0.184 0,-0.133 0.352,-0.25 0.442,-0.25 0.082,0 0.089,0.028 0.168,0.192 l 2.125,4.679 z"
         style="fill:#000000;fill-opacity:1;fill-rule:nonzero;stroke:none"
         id="path208" /><path
         d="m 678.438,159.86 0,0.156 -0.004,0.016 0,0.047 -0.004,0.011 -0.004,0.02 0,0.02 -0.004,0.015 -0.004,0.02 -0.008,0.015 -0.008,0.012 -0.004,0.012 -0.007,0.011 -0.02,0.02 -0.023,0.016 -0.016,0.007 -0.008,0 -0.008,0.004 -0.007,0 -0.008,0.004 -0.012,0.004 -0.008,0 -0.011,0.004 -0.008,0 -0.012,0.004 -0.102,0 -0.015,0.004 -0.067,0 c -1,-1.031 -2.418,-1.031 -2.933,-1.031 l 0,-0.504 c 0.324,0 1.273,0 2.109,0.422 l 0,-8.364 c 0,-0.582 -0.047,-0.773 -1.496,-0.773 l -0.519,0 0,-0.5 c 0.566,0.051 1.968,0.051 2.613,0.051 0.648,0 2.047,0 2.613,-0.051 l 0,0.5 -0.512,0 c -1.453,0 -1.503,0.176 -1.503,0.773 l 0,9.055 z"
         style="fill:#000000;fill-opacity:1;fill-rule:nonzero;stroke:none"
         id="path210" /><path
         d="m 685.055,160.692 0.011,0.02 0.004,0.015 0.016,0.031 0.004,0.016 0.008,0.016 0.007,0.011 0.004,0.012 0.004,0.016 0.008,0.015 0,0.008 0.004,0.016 0.004,0.012 0.004,0.007 0.004,0.016 0.004,0.008 0,0.011 0.004,0.008 0,0.012 0.003,0.008 0,0.012 0.004,0.007 0,0.016 0.004,0.02 0,0.046 c 0,0.348 -0.316,0.621 -0.668,0.621 -0.429,0 -0.562,-0.351 -0.617,-0.531 l -1.496,-4.886 c -0.008,-0.02 -0.055,-0.172 -0.055,-0.184 0,-0.133 0.352,-0.25 0.442,-0.25 0.082,0 0.09,0.027 0.168,0.191 l 2.125,4.68 z"
         style="fill:#000000;fill-opacity:1;fill-rule:nonzero;stroke:none"
         id="path212" /><path
         d="m 618.324,96.723 1.711,1.664 c 2.516,2.223 3.488,3.094 3.488,4.707 0,1.844 -1.453,3.137 -3.421,3.137 -1.829,0 -3.024,-1.488 -3.024,-2.926 0,-0.902 0.809,-0.902 0.856,-0.902 0.277,0 0.843,0.195 0.843,0.855 0,0.422 -0.289,0.84 -0.855,0.84 -0.129,0 -0.164,0 -0.207,-0.015 0.367,1.05 1.238,1.648 2.176,1.648 1.468,0 2.164,-1.312 2.164,-2.637 0,-1.289 -0.809,-2.562 -1.696,-3.566 l -3.097,-3.453 c -0.184,-0.176 -0.184,-0.207 -0.184,-0.594 l 5.988,0 0.457,2.809 -0.406,0 c -0.082,-0.489 -0.191,-1.196 -0.355,-1.442 -0.114,-0.125 -1.176,-0.125 -1.532,-0.125 l -2.906,0 z"
         style="fill:#000000;fill-opacity:1;fill-rule:nonzero;stroke:none"
         id="path214" /><path
         d="m 627.637,106.641 0.008,0.02 0.015,0.031 0.004,0.016 0.008,0.011 0.008,0.02 0.004,0.012 0.007,0.011 0.008,0.032 0.004,0.007 0.004,0.012 0.004,0.016 0.004,0.008 0.004,0.015 0,0.008 0.004,0.012 0.004,0.008 0,0.011 0.003,0.008 0,0.012 0.004,0.008 0,0.015 0.004,0.02 0,0.047 c 0,0.347 -0.32,0.621 -0.668,0.621 -0.433,0 -0.562,-0.352 -0.621,-0.532 l -1.492,-4.886 c -0.012,-0.02 -0.055,-0.172 -0.055,-0.184 0,-0.133 0.348,-0.25 0.442,-0.25 0.078,0 0.09,0.027 0.168,0.192 l 2.125,4.679 z"
         style="fill:#000000;fill-opacity:1;fill-rule:nonzero;stroke:none"
         id="path216" /><path
         d="m 707.418,98.469 0.125,0.043 0.117,0.047 0.121,0.051 0.114,0.055 0.113,0.058 0.109,0.059 0.11,0.066 0.203,0.141 0.101,0.074 0.094,0.078 0.09,0.082 0.172,0.172 0.082,0.086 0.078,0.098 0.07,0.093 0.067,0.094 0.066,0.098 0.062,0.105 0.059,0.102 0.051,0.105 0.043,0.106 0.047,0.113 0.07,0.219 0.031,0.113 0.024,0.117 0.019,0.118 0.012,0.113 0.004,0.117 0.004,0.121 c 0,1.32 -1.422,2.231 -2.969,2.231 -1.629,0 -2.855,-0.973 -2.855,-2.2 0,-0.535 0.355,-0.839 0.824,-0.839 0.5,0 0.82,0.355 0.82,0.824 0,0.804 -0.758,0.804 -0.996,0.804 0.496,0.789 1.566,1.004 2.145,1.004 0.656,0 1.546,-0.355 1.546,-1.808 0,-0.196 -0.035,-1.129 -0.453,-1.844 -0.48,-0.773 -1.031,-0.82 -1.429,-0.84 -0.133,-0.015 -0.52,-0.043 -0.637,-0.043 -0.125,-0.015 -0.242,-0.031 -0.242,-0.195 0,-0.176 0.117,-0.176 0.39,-0.176 l 0.707,0 c 1.328,0 1.926,-1.098 1.926,-2.684 0,-2.191 -1.113,-2.66 -1.828,-2.66 -0.691,0 -1.906,0.274 -2.465,1.223 0.559,-0.074 1.063,0.281 1.063,0.891 0,0.582 -0.434,0.902 -0.907,0.902 -0.382,0 -0.902,-0.223 -0.902,-0.938 0,-1.464 1.5,-2.527 3.262,-2.527 1.969,0 3.437,1.465 3.437,3.109 0,1.329 -1.019,2.583 -2.695,2.922 z"
         style="fill:#000000;fill-opacity:1;fill-rule:nonzero;stroke:none"
         id="path218" /><path
         d="m 714.098,103.95 0.011,0.019 0.008,0.016 0.004,0.016 0.008,0.019 0.004,0.012 0.008,0.015 0.007,0.012 0.008,0.031 0.008,0.012 0.008,0.024 0,0.011 0.012,0.035 0.007,0.016 0,0.031 0.004,0.008 0,0.02 0.004,0.019 0,0.043 c 0,0.352 -0.316,0.621 -0.668,0.621 -0.429,0 -0.558,-0.351 -0.617,-0.531 l -1.492,-4.887 c -0.012,-0.019 -0.059,-0.168 -0.059,-0.183 0,-0.133 0.352,-0.246 0.442,-0.246 0.082,0 0.09,0.023 0.168,0.191 l 2.125,4.676 z"
         style="fill:#000000;fill-opacity:1;fill-rule:nonzero;stroke:none"
         id="path220" /></g></g></svg>